<svg width="48" height="49" viewBox="0 0 48 49" fill="none" xmlns="http://www.w3.org/2000/svg">
<path d="M32.0527 5.84985C37.933 5.84991 42.7001 10.617 42.7002 16.4973V32.6028C42.7001 38.4831 37.933 43.2502 32.0527 43.2502H24.4131V26.1663H29.2119L29.4609 24.2327H24.4131V19.1272C24.4131 18.2827 24.5092 17.0993 25.3037 16.1555C26.1534 15.1462 27.4218 14.8314 28.7549 14.8313L29.8799 14.8303V13.3225C29.207 13.2827 28.3683 13.2502 27.4639 13.2502C25.7734 13.2503 24.5247 13.7605 23.7031 14.5725C22.8868 15.3793 22.3047 16.6693 22.3047 18.5999V24.2327H17.7002V26.1663H22.3047V43.2502H15.9473C10.067 43.2502 5.29986 38.4831 5.2998 32.6028V16.4973C5.29986 10.617 10.067 5.84991 15.9473 5.84985H32.0527Z" stroke="#6D6D6D" stroke-width="3.4"/>
</svg>
