<svg width="48" height="49" viewBox="0 0 48 49" fill="none" xmlns="http://www.w3.org/2000/svg">
<path d="M31.6641 5.30005L31.9883 5.30396C38.7791 5.47659 44.25 11.0546 44.25 17.887V31.3928C44.2499 38.334 38.6041 43.9806 31.6641 43.9807H16.3369C9.39677 43.9807 3.75009 38.3341 3.75 31.3928V17.887C3.75 10.9461 9.39673 5.30005 16.3369 5.30005H31.6641ZM16.3369 8.54126C11.1843 8.54126 6.99219 12.7342 6.99219 17.887V31.3928C6.99228 36.546 11.1843 40.7385 16.3369 40.7385H31.6641C36.816 40.7384 41.0087 36.546 41.0088 31.3928V17.887C41.0088 12.7343 36.8161 8.54134 31.6641 8.54126H16.3369ZM24 13.4094C30.1939 13.4095 35.2313 18.4455 35.2314 24.6399C35.2314 30.8334 30.194 35.8713 24 35.8713C17.8065 35.8713 12.7686 30.8334 12.7686 24.6399C12.7687 18.4455 17.8067 13.4094 24 13.4094ZM24 16.6497C19.5947 16.6497 16.01 20.2335 16.0098 24.6399C16.0098 29.0448 19.5946 32.6292 24 32.6292C28.4059 32.6291 31.9902 29.0448 31.9902 24.6399C31.99 20.2336 28.4058 16.6497 24 16.6497ZM34.8135 11.467C36.2105 11.467 37.3418 12.5989 37.3418 13.9963C37.3418 15.3917 36.2104 16.5247 34.8135 16.5247C33.4173 16.5245 32.2852 15.3917 32.2852 13.9963C32.2852 12.5989 33.4172 11.4672 34.8135 11.467Z" fill="#6D6D6D" stroke="#6D6D6D" stroke-width="0.5"/>
</svg>
