<?xml version="1.0" encoding="UTF-8"?>
<svg id="_圖層_1" data-name="圖層_1" xmlns="http://www.w3.org/2000/svg" version="1.1" viewBox="0 0 48 49">
  <!-- Generator: Adobe Illustrator 29.7.1, SVG Export Plug-In . SVG Version: 2.1.1 Build 8)  -->
  <defs>
    <style>
      .st0 {
        fill: #6d6d6d;
      }

      .st1 {
        fill: none;
        stroke: #6d6d6d;
        stroke-width: 4px;
      }
    </style>
  </defs>
  <path class="st1" d="M24,5.4c10.62,0,20,7.08,20,16.61,0,3.81-1.5,7.16-4.35,10.3-2.06,2.37-5.28,4.89-8.13,6.88-2.66,1.85-5.23,3.4-6.51,4l-.24.11c-.58.24-1.24.44-1.92.41-.8-.04-1.59-.42-2.06-1.18-.39-.62-.41-1.26-.41-1.58,0-.35.07-.66.08-.77,0-.01,0-.02,0-.03.02-.13.09-.51.14-.86.03-.18.06-.34.08-.47.01-.06.02-.11.02-.15h0c.01-.09.02-.18.03-.26-.02,0-.04-.01-.07-.02-9.26-1.27-16.68-7.89-16.68-16.38C4,12.48,13.38,5.4,24,5.4Z"/>
  <g>
    <path class="st0" d="M18.43,26.03c-.03.3-.12.39-.42.42-1.4.13-3.01-.1-4.44,0-.19-.03-.36-.13-.34-.34v-7.38c.02-.06.05-.11.11-.14.19-.13,1.36-.14,1.53.02.03.03.12.22.12.24v5.81h3.21c.09,0,.2.21.22.3.03.23.03.84,0,1.08ZM21.09,26.35c-.15.12-1.1.12-1.32.09-.2-.03-.31-.14-.34-.34v-7.23c0-.1.04-.22.11-.28.15-.13,1.11-.13,1.33-.09.12.02.28.12.31.25v7.35c0,.08-.04.2-.09.25ZM29.07,26.25c-.03.09-.14.16-.22.18-.18.05-.93.04-1.14.02-.1-.01-.19-.03-.26-.1l-3.22-4.45-.14-.12v4.41s-.11.16-.14.18c-.16.12-1.28.12-1.46.02-.07-.04-.14-.13-.15-.21v-7.44c.08-.18.23-.22.41-.24.25-.03,1.04-.04,1.22.1l3.26,4.49.1.08v-4.33s.09-.21.12-.24c.17-.15,1.35-.15,1.53-.02.05.04.08.08.1.14v7.52ZM35.18,21.57c.17,0,.25.19.26.34.02.26.03.95,0,1.2-.01.09-.13.26-.22.26h-3.21v1.28h3.21c.1.02.2.16.22.26.04.24.03.94,0,1.2-.02.19-.06.25-.24.32l-4.54.02c-.18,0-.33-.07-.4-.24v-7.47c.07-.18.22-.22.4-.24l4.49.02c.16.03.26.11.28.28.03.23.03,1.02,0,1.24-.01.07-.13.26-.18.26h-3.25v1.28h3.17Z"/>
    <path class="st0" d="M28.99,18.58c-.19-.13-1.36-.14-1.53.02-.03.03-.12.22-.12.24v4.33l-.1-.08-3.26-4.49c-.18-.14-.97-.12-1.22-.1-.18.02-.33.06-.4.24v7.44c0,.08.08.17.14.21.18.1,1.29.1,1.46-.02.03-.02.14-.16.14-.18v-4.41l.14.12,3.22,4.45c.07.07.17.09.26.1.21.02.96.03,1.14-.02.08-.02.19-.09.22-.18v-7.52c0-.06-.03-.11-.09-.14Z"/>
    <path class="st0" d="M35.26,20.3s.17-.19.18-.26c.04-.22.03-1.01,0-1.24-.02-.17-.12-.25-.28-.28l-4.49-.02c-.18.02-.33.06-.4.24v7.47c.07.17.22.24.4.24l4.54-.02c.18-.07.22-.13.24-.32.02-.26.03-.95,0-1.2-.02-.1-.12-.24-.22-.26h-3.21v-1.28h3.21c.08,0,.2-.17.22-.26.04-.25.03-.94,0-1.2-.01-.15-.09-.34-.26-.34h-3.17v-1.28h3.25Z"/>
    <path class="st0" d="M18.21,24.65h-3.21v-5.81s-.09-.21-.12-.24c-.17-.15-1.35-.15-1.53-.02-.05.04-.08.08-.1.14v7.38c-.03.21.14.31.33.34,1.43-.1,3.03.13,4.44,0,.3-.03.39-.12.42-.42.02-.24.03-.85,0-1.08-.01-.09-.12-.3-.22-.3Z"/>
    <path class="st0" d="M20.87,18.51c-.22-.04-1.18-.04-1.33.09-.08.07-.11.19-.12.28v7.23c.03.2.14.31.34.34.22.03,1.18.03,1.32-.09.05-.05.1-.17.09-.25v-7.35c-.03-.13-.19-.23-.31-.25Z"/>
  </g>
</svg>