<svg width="25" height="25" viewBox="0 0 25 25" fill="none" xmlns="http://www.w3.org/2000/svg">
<path d="M22.3334 17.1367V20.1367C22.3346 20.4152 22.2775 20.6908 22.1659 20.946C22.0544 21.2012 21.8907 21.4302 21.6855 21.6185C21.4803 21.8068 21.238 21.9501 20.9742 22.0394C20.7104 22.1286 20.4308 22.1617 20.1534 22.1367C17.0763 21.8023 14.1204 20.7508 11.5234 19.0667C9.10726 17.5313 7.05877 15.4828 5.52343 13.0667C3.83341 10.4579 2.78167 7.48764 2.45343 4.39665C2.42844 4.12012 2.4613 3.84141 2.54993 3.57827C2.63856 3.31514 2.781 3.07334 2.9682 2.86827C3.15539 2.6632 3.38323 2.49936 3.63722 2.38717C3.89121 2.27498 4.16577 2.21691 4.44343 2.21665H7.44343C7.92874 2.21187 8.39922 2.38373 8.76719 2.70018C9.13516 3.01664 9.37551 3.4561 9.44343 3.93665C9.57005 4.89672 9.80488 5.83938 10.1434 6.74665C10.278 7.10457 10.3071 7.49356 10.2273 7.86753C10.1476 8.2415 9.96229 8.58476 9.69343 8.85665L8.42343 10.1266C9.84698 12.6302 11.9199 14.7031 14.4234 16.1266L15.6934 14.8567C15.9653 14.5878 16.3086 14.4025 16.6825 14.3227C17.0565 14.243 17.4455 14.2721 17.8034 14.4066C18.7107 14.7452 19.6534 14.98 20.6134 15.1067C21.0992 15.1752 21.5428 15.4199 21.86 15.7941C22.1771 16.1684 22.3456 16.6462 22.3334 17.1367Z" stroke="#B48A57" stroke-width="2" stroke-linecap="round" stroke-linejoin="round"/>
</svg>
