<svg width="25" height="25" viewBox="0 0 25 25" fill="none" xmlns="http://www.w3.org/2000/svg">
<g clip-path="url(#clip0_26_147)">
<path d="M21.3335 10.55C21.3335 17.55 12.3335 23.55 12.3335 23.55C12.3335 23.55 3.3335 17.55 3.3335 10.55C3.3335 8.1631 4.28171 5.87391 5.96953 4.18609C7.65736 2.49826 9.94655 1.55005 12.3335 1.55005C14.7204 1.55005 17.0096 2.49826 18.6975 4.18609C20.3853 5.87391 21.3335 8.1631 21.3335 10.55Z" stroke="#B48A57" stroke-width="2" stroke-linecap="round" stroke-linejoin="round"/>
<path d="M12.3335 13.55C13.9904 13.55 15.3335 12.2069 15.3335 10.55C15.3335 8.89319 13.9904 7.55005 12.3335 7.55005C10.6766 7.55005 9.3335 8.89319 9.3335 10.55C9.3335 12.2069 10.6766 13.55 12.3335 13.55Z" stroke="#B48A57" stroke-width="2" stroke-linecap="round" stroke-linejoin="round"/>
</g>
<defs>
<clipPath id="clip0_26_147">
<rect width="24" height="24" fill="white" transform="translate(0.333496 0.550049)"/>
</clipPath>
</defs>
</svg>
