<svg width="20" height="20" viewBox="0 0 20 20" fill="none" xmlns="http://www.w3.org/2000/svg">
<path fill-rule="evenodd" clip-rule="evenodd" d="M17.5008 3.125C17.5008 2.95924 17.4349 2.80027 17.3177 2.68306C17.2005 2.56585 17.0415 2.5 16.8758 2.5H9.37579C9.21003 2.5 9.05106 2.56585 8.93385 2.68306C8.81664 2.80027 8.75079 2.95924 8.75079 3.125C8.75079 3.29076 8.81664 3.44973 8.93385 3.56694C9.05106 3.68415 9.21003 3.75 9.37579 3.75H15.367L2.68329 16.4325C2.62518 16.4906 2.57908 16.5596 2.54764 16.6355C2.51619 16.7114 2.5 16.7928 2.5 16.875C2.5 16.9572 2.51619 17.0386 2.54764 17.1145C2.57908 17.1904 2.62518 17.2594 2.68329 17.3175C2.7414 17.3756 2.81039 17.4217 2.88631 17.4532C2.96223 17.4846 3.04361 17.5008 3.12579 17.5008C3.20797 17.5008 3.28934 17.4846 3.36527 17.4532C3.44119 17.4217 3.51018 17.3756 3.56829 17.3175L16.2508 4.63375V10.625C16.2508 10.7908 16.3166 10.9497 16.4338 11.0669C16.5511 11.1842 16.71 11.25 16.8758 11.25C17.0415 11.25 17.2005 11.1842 17.3177 11.0669C17.4349 10.9497 17.5008 10.7908 17.5008 10.625V3.125Z" fill="#57A203"/>
</svg>
